HIERARCHY
ROOT Bip001_Pelvis
{
  OFFSET 32.8599 95.8771 -27.9544
  CHANNELS 6 Xposition Yposition Zposition Zrotation Xrotation Yrotation
  JOINT Bip001_Spine
  {
    OFFSET 1.4188e-005 10.2191 -0.0116013
    CHANNELS 3 Zrotation Xrotation Yrotation
    JOINT Bip001_L_Thigh
    {
      OFFSET 11.0458 -10.2191 0.0116197
      CHANNELS 3 Zrotation Xrotation Yrotation
      JOINT Bip001_L_Calf
      {
        OFFSET -0.707118 -44.0221 0.360014
        CHANNELS 3 Zrotation Xrotation Yrotation
        JOINT Bip001_L_Foot
        {
          OFFSET -0.651902 -40.5938 -3.56146
          CHANNELS 3 Zrotation Xrotation Yrotation
          JOINT Bip001_L_Toe0
          {
            OFFSET 0.0530839 -10.2181 13.1504
            CHANNELS 3 Zrotation Xrotation Yrotation
            End Site
            {
              OFFSET -1.02532e-005 0 7.55606
            }
          }
        }
      }
    }
    JOINT Bip001_R_Thigh
    {
      OFFSET -11.0458 -10.2191 0.0115893
      CHANNELS 3 Zrotation Xrotation Yrotation
      JOINT Bip001_R_Calf
      {
        OFFSET 0.706994 -44.0221 0.35984
        CHANNELS 3 Zrotation Xrotation Yrotation
        JOINT Bip001_R_Foot
        {
          OFFSET 0.651787 -40.5938 -3.5613
          CHANNELS 3 Zrotation Xrotation Yrotation
          JOINT Bip001_R_Toe0
          {
            OFFSET -0.0531479 -10.2181 13.1504
            CHANNELS 3 Zrotation Xrotation Yrotation
            End Site
            {
              OFFSET -1.02894e-005 0 7.55606
            }
          }
        }
      }
    }
    JOINT Bip001_Spine1
    {
      OFFSET 1.87041e-005 14.5736 1.08638
      CHANNELS 3 Zrotation Xrotation Yrotation
      JOINT Bip001_Spine2
      {
        OFFSET 2.24614e-005 14.5058 -1.69078
        CHANNELS 3 Zrotation Xrotation Yrotation
        JOINT Bip001_Neck
        {
          OFFSET 2.20278e-005 15.3945 -0.489414
          CHANNELS 3 Zrotation Xrotation Yrotation
          JOINT Bip001_L_Clavicle
          {
            OFFSET 6.06036 -0.000579998 0.00836775
            CHANNELS 3 Zrotation Xrotation Yrotation
            JOINT Bip001_L_UpperArm
            {
              OFFSET 11.5509 -0.0600302 0.00193952
              CHANNELS 3 Zrotation Xrotation Yrotation
              JOINT Bip001_L_Forearm
              {
                OFFSET 25.9523 0.0806089 -2.15551
                CHANNELS 3 Zrotation Xrotation Yrotation
                JOINT Bip001_L_Hand
                {
                  OFFSET 32.2475 0.153767 1.63968
                  CHANNELS 3 Zrotation Xrotation Yrotation
                  JOINT Bip001_L_Finger0
                  {
                    OFFSET 6.04639 -2.20976 5.90322
                    CHANNELS 3 Zrotation Xrotation Yrotation
                    End Site
                    {
                      OFFSET 4.22375 -1.43895 0.606486
                    }
                  }
                  JOINT Bip001_L_Finger1
                  {
                    OFFSET 11.0826 -0.704819 -0.198153
                    CHANNELS 3 Zrotation Xrotation Yrotation
                    End Site
                    {
                      OFFSET 6.20027 -0.397518 -0.0787166
                    }
                  }
                }
              }
            }
          }
          JOINT Bip001_R_Clavicle
          {
            OFFSET -6.06036 -0.000563197 0.00835105
            CHANNELS 3 Zrotation Xrotation Yrotation
            JOINT Bip001_R_UpperArm
            {
              OFFSET -11.5509 -0.0599978 0.00190698
              CHANNELS 3 Zrotation Xrotation Yrotation
              JOINT Bip001_R_Forearm
              {
                OFFSET -25.9523 0.0806819 -2.1559
                CHANNELS 3 Zrotation Xrotation Yrotation
                JOINT Bip001_R_Hand
                {
                  OFFSET -32.2476 0.153857 1.63991
                  CHANNELS 3 Zrotation Xrotation Yrotation
                  JOINT Bip001_R_Finger0
                  {
                    OFFSET -6.04642 -2.20975 5.9032
                    CHANNELS 3 Zrotation Xrotation Yrotation
                    End Site
                    {
                      OFFSET -4.22376 -1.43894 0.606473
                    }
                  }
                  JOINT Bip001_R_Finger1
                  {
                    OFFSET -11.0826 -0.70479 -0.198183
                    CHANNELS 3 Zrotation Xrotation Yrotation
                    End Site
                    {
                      OFFSET -6.20028 -0.397501 -0.0787337
                    }
                  }
                }
              }
            }
          }
          JOINT Bip001_Head
          {
            OFFSET 1.09673e-005 11.2744 2.05948
            CHANNELS 3 Zrotation Xrotation Yrotation
            End Site
            {
              OFFSET 2.89576e-005 20.8808 -2.77728e-005
            }
          }
        }
      }
    }
  }
}
MOTION
Frames:	6
Frame Time:	0.04
32.8974 95.8619 -28.6088 0.844759 0.349606 2.41833 -0.374597 1.86966 -0.0947376 4.52304 -3.39974 9.26447 0.0208311 6.66822 -13.709 4.63398 -2.00569 -0.150997 -1.49561 -4.8505 2.77618 -3.55832 -3.88255 -1.63486 0.345437 11.4027 0.10745 -5.86821 -10.013 1.37728 2.15383 -7.26755 2.1931 -0.746688 3.73988 -0.177336 -0.746687 3.73988 -0.177336 1.22049 -6.29791 -2.64988 -25.2474 6.59373 1.85687 -56.9409 42.2126 3.61485 15.9267 3.37267 -20.0799 9.21266 1.7827 -4.59058 3.18055e-015 -6.36111e-015 3.18055e-015 3.18055e-015 -9.54167e-015 3.18055e-015 26.625 14.8288 19.3167 52.5694 36.5045 -0.881448 -8.89062 5.17686 5.77526 -1.36459 11.4138 4.10163 -3.31043e-032 -1.59028e-015 -1.19271e-015 -2.75869e-032 -1.59028e-015 -9.93923e-016 -0.509219 -7.69495 -2.20679 
32.7734 95.8516 -28.4585 0.526172 -0.143063 2.49844 -0.288013 1.97765 -0.132496 5.01009 -3.1427 9.85459 -0.13608 7.14881 -14.3267 4.7687 -2.31568 -0.151028 -1.46739 -4.87655 2.73175 -3.11684 -3.14331 -1.93359 0.0947731 10.8667 0.277702 -5.84249 -9.88731 1.53686 2.15383 -7.26755 2.1931 -0.571949 3.95596 -0.25528 -0.57195 3.95596 -0.25528 1.42368 -5.6722 -2.64685 -25.3804 6.01571 1.59208 -57.0122 42.2445 3.41154 16.0427 3.86756 -19.9648 9.0876 1.72021 -4.78357 1.76556e-031 -6.36111e-015 1.59028e-015 8.82782e-032 -3.18056e-015 1.59028e-015 26.3735 13.9807 18.7983 53.6017 35.0047 -0.822404 -8.66082 5.84292 5.47689 -1.82678 11.7745 4.41192 -7.95139e-016 -1.59028e-015 -3.97569e-016 -7.95139e-016 0 -1.98785e-016 -0.659063 -8.44936 -2.1407 
32.8142 95.8401 -28.4929 0.57172 -0.197685 2.26763 -0.298245 1.98916 -0.123447 4.91958 -3.0616 10.0463 -0.0917196 7.10768 -14.3695 4.89097 -2.23602 -0.15102 -1.45353 -4.99754 2.72841 -3.2113 -3.27951 -1.96375 0.111076 11.1066 0.315432 -5.80113 -9.98117 1.71416 2.15383 -7.26705 2.19324 -0.59283 3.98713 -0.234291 -0.592853 3.98714 -0.234146 1.81076 -5.32511 -2.64803 -25.6295 5.68967 1.40253 -57.2766 42.195 3.3765 16.2022 4.39171 -20.0107 8.98223 1.61879 -5.021 6.36111e-015 3.18055e-015 -6.36111e-015 6.36111e-015 0 -4.77083e-015 26.2343 13.3893 18.0096 54.0193 32.97 -0.382966 -8.30382 6.76205 5.36464 -1.88965 13.2214 5.53451 2.38542e-015 3.18055e-015 5.96354e-016 1.59028e-015 1.59028e-015 7.95139e-016 -0.980251 -8.8403 -1.9975 
32.894 95.8343 -28.5476 0.656753 -0.150865 2.01997 -0.298545 1.98601 -0.135288 4.70708 -3.03998 10.1147 0.00623671 6.98602 -14.2643 5.12758 -2.02575 -0.168909 -1.37128 -5.14793 2.68132 -3.38273 -3.51065 -1.82825 0.170783 11.3424 0.267592 -5.75891 -10.056 1.82766 2.15513 -7.29904 2.19394 -0.596269 3.97268 -0.259965 -0.596171 3.97269 -0.260279 2.08478 -5.14747 -2.55906 -25.7949 5.58215 1.14031 -57.5501 42.1462 3.35236 16.0343 4.56406 -19.9684 9.24534 1.43076 -5.32064 6.36111e-015 -3.18055e-015 -0 6.36111e-015 -6.36111e-015 -1.59028e-015 26.1114 12.9633 17.3046 54.3694 32.3096 -0.258018 -8.42304 7.2476 5.79665 -1.70615 6.37059 7.79821 0 3.18055e-015 -0 -1.59028e-015 6.36111e-015 -0 -1.26857 -9.09428 -1.79898 
32.9718 95.8255 -28.5369 0.697814 -0.280761 1.8044 -0.296606 2.01903 -0.163089 4.57389 -2.8919 10.3906 0.081341 6.98059 -14.3185 5.25005 -1.99292 -0.17025 -1.3334 -5.20414 2.64385 -3.46807 -3.52541 -1.87077 0.0730947 11.5146 0.376756 -5.68944 -10.1267 2.06353 2.15477 -7.2868 2.19472 -0.584891 4.03886 -0.316055 -0.584893 4.03887 -0.316056 2.41316 -5.01591 -2.44854 -25.9887 5.53059 0.851512 -57.7622 42.2609 3.14443 15.9123 5.17491 -19.5696 9.35443 0.768678 -5.91435 3.18055e-015 3.18055e-015 -1.59028e-015 3.18055e-015 3.18056e-015 -0 25.5136 12.5316 16.7166 54.6678 32.5224 0.198598 -8.87217 8.53983 5.25011 -3.46328 4.50758 9.15373 -1.59028e-015 6.36111e-015 -7.95139e-016 -3.18055e-015 3.18056e-015 -7.95139e-016 -1.62562 -9.4795 -1.55836 
33.0781 95.8198 -28.4804 0.792587 -0.442428 1.60114 -0.291529 2.04749 -0.170314 4.38015 -2.62669 10.822 0.166969 6.87744 -14.531 5.17191 -2.10167 -0.167507 -1.37211 -5.13866 2.66826 -3.64629 -3.45682 -2.02433 0.0149862 11.6687 0.494649 -5.62229 -10.2383 2.32241 2.15482 -7.28489 2.19573 -0.577543 4.09636 -0.329328 -0.577548 4.09636 -0.329485 2.67942 -4.91477 -2.36693 -26.1298 5.52238 0.519138 -57.839 42.464 2.76577 15.7117 5.52126 -18.7718 9.58701 0.291992 -6.32459 6.36111e-015 -3.18055e-015 1.59028e-015 6.36111e-015 -3.18056e-015 1.59028e-015 25.0564 12.1735 16.1744 54.576 33.3183 0.042743 -9.72921 9.1383 5.21508 -4.19618 4.47636 9.33254 -1.59028e-015 0 -0 -1.59028e-015 3.18056e-015 -7.95139e-016 -1.91966 -9.94239 -1.37643 
